<svg xmlns="http://www.w3.org/2000/svg" width="70.172" height="44" viewBox="0 0 70.172 44">
  <path id="yawbs-svg" d="M-5.168-36.131a2.341,2.341,0,0,1-1.665-.275,1.887,1.887,0,0,1-.944-1.339,9.658,9.658,0,0,1-.137-1.716,18.515,18.515,0,0,1,.1-1.939q.1-.978.292-1.905t.395-1.648a.568.568,0,0,1,.532-.309,2.071,2.071,0,0,1,.755.154,2.508,2.508,0,0,1,.687.395,1.021,1.021,0,0,1,.36.481,3.125,3.125,0,0,1-.189,1.425q-.292.978-.635,2.042t-.549,1.974q-.206.91.069,1.15.24.24.635-.12a5.29,5.29,0,0,0,.841-1.064q.446-.7.927-1.648t.944-1.871q.463-.927.841-1.716t.618-1.2q.069-.137.326-.12a1.4,1.4,0,0,1,.532.154,2.206,2.206,0,0,1,.515.36,1.012,1.012,0,0,1,.309.5A7.987,7.987,0,0,1,.6-41.778a18.355,18.355,0,0,1-.378,2.626q1.27-1,2.489-1.785a18.485,18.485,0,0,1,2.626-1.407,1.227,1.227,0,0,1,.532-.154,2.7,2.7,0,0,1,.669-.017q.275.034.292.223t-.635.6A37.543,37.543,0,0,0,3-39.427q-1.613,1.27-3.021,2.4a.82.82,0,0,0-.309.549,30.548,30.548,0,0,1-.961,4.256,47.231,47.231,0,0,1-1.665,4.7A40.2,40.2,0,0,1-5.151-23a22.86,22.86,0,0,1-2.557,3.69,4.9,4.9,0,0,1-1.819,1.39,2.784,2.784,0,0,1-1.768.189,2.262,2.262,0,0,1-1.339-1.013,4.177,4.177,0,0,1-.566-2.214A17.257,17.257,0,0,1-11.758-25.1a28.53,28.53,0,0,1,2.386-3.947q1.39-1.939,3.072-3.879t3.536-3.93a1.631,1.631,0,0,0,.446-.807,11.168,11.168,0,0,0,.343-1.356,12.8,12.8,0,0,0,.189-1.356,2.062,2.062,0,0,0-.017-.772q-.343.618-.755,1.459t-.858,1.613a11.312,11.312,0,0,1-.892,1.339A1.34,1.34,0,0,1-5.168-36.131Zm-6.419,16.579q.378.137,1.1-.738a20.93,20.93,0,0,0,1.613-2.334q.892-1.459,1.819-3.261t1.7-3.5q.772-1.7,1.287-3.072a7.919,7.919,0,0,0,.549-1.957q-.892.961-1.957,2.317t-2.094,2.849Q-8.6-27.756-9.51-26.211a29.692,29.692,0,0,0-1.51,2.883,10.682,10.682,0,0,0-.789,2.351A1.56,1.56,0,0,0-11.587-19.552ZM8.871-37.3l-.687.532a5,5,0,0,1-.824.515,4.424,4.424,0,0,1-.944.343,2.474,2.474,0,0,1-1.047.017,1.962,1.962,0,0,1-.755-.292,4.026,4.026,0,0,1-.652-.532,1.462,1.462,0,0,1-.378-.892,4.508,4.508,0,0,1-.034-.927,17.618,17.618,0,0,1,.481-1.888,15.676,15.676,0,0,1,.755-1.957,10.949,10.949,0,0,1,1.922-2.815,5.265,5.265,0,0,1,2.815-1.579,2.969,2.969,0,0,1,1.15-.051,2.408,2.408,0,0,1,1.047.395,2.113,2.113,0,0,1,.687.772,1.4,1.4,0,0,1,.1,1.013q-.069.206-.154.412a1.242,1.242,0,0,1-.206.343.416.416,0,0,1-.223.154q-.1.017-.206-.189-.034-.1-.086-.292a1.751,1.751,0,0,0-.154-.378,1.168,1.168,0,0,0-.292-.343.761.761,0,0,0-.5-.154,2.286,2.286,0,0,0-1.476.807A13.249,13.249,0,0,0,7.636-42.4a18.1,18.1,0,0,0-1.3,2.163,8.754,8.754,0,0,0-.687,1.63q-.206.892.034.944t.755-.378A10.456,10.456,0,0,0,7.6-39.221q.652-.755,1.236-1.493t1.013-1.3q.429-.566.463-.6a1.29,1.29,0,0,1,.892-.309,1.273,1.273,0,0,1,.772.326,1.484,1.484,0,0,1,.446.721,1.237,1.237,0,0,1-.086.875q-.24.549-.635,1.3a4.76,4.76,0,0,0-.5,1.339q-.1.892.206,1.167t1.133-.034a4.592,4.592,0,0,0,1.373-.978q.721-.7,1.425-1.493t1.322-1.51a9.4,9.4,0,0,1,1.03-1.064,2.783,2.783,0,0,1,.257-.223q.154-.12.257-.051.172.069.189.189a1.823,1.823,0,0,1,.017.257,17.191,17.191,0,0,1-1.064,2.163,13.566,13.566,0,0,1-1.39,1.974,10.4,10.4,0,0,1-1.716,1.613A8.244,8.244,0,0,1,12.2-35.239a2.556,2.556,0,0,1-1.236.154,2.368,2.368,0,0,1-1-.395,2.387,2.387,0,0,1-.721-.789A3.279,3.279,0,0,1,8.871-37.3Zm25.573-5.218a3.869,3.869,0,0,1-1.3.566,3.967,3.967,0,0,1-1.373.069,5.049,5.049,0,0,1-1.339-.36,4.34,4.34,0,0,1-1.167-.721q-.309,1-.7,2.163a17.3,17.3,0,0,1-.91,2.2,8.652,8.652,0,0,1-1.2,1.819,3.172,3.172,0,0,1-1.579,1.03.764.764,0,0,1-.515.034,2.248,2.248,0,0,1-.635-.257,3.8,3.8,0,0,1-.6-.429,2.851,2.851,0,0,1-.446-.481,2.06,2.06,0,0,1-.36-.875,6.052,6.052,0,0,1-.086-1.03,7.531,7.531,0,0,1,.069-1.03,6.5,6.5,0,0,0,.069-.875q-.206.309-.652,1.116t-.978,1.648a12.34,12.34,0,0,1-1.081,1.476q-.549.635-.892.6a2.245,2.245,0,0,1-1.047-.395,1.888,1.888,0,0,1-.669-.807,3.714,3.714,0,0,1-.1-1.613,19.829,19.829,0,0,1,.36-2.3q.257-1.2.532-2.265t.412-1.579q0-.309.36-.275a1.8,1.8,0,0,1,.772.292,2.234,2.234,0,0,1,.7.721,1.431,1.431,0,0,1,.189,1.047q-.172.824-.326,1.51T19.6-40.2q-.189.635-.412,1.322t-.5,1.51q.1.206.549-.395a16.716,16.716,0,0,0,.961-1.476q.515-.875,1-1.8t.721-1.339a1.257,1.257,0,0,0,.275-.652,1.968,1.968,0,0,1,.206-.687.527.527,0,0,1,.515-.275,1.5,1.5,0,0,1,.618.223,2.847,2.847,0,0,1,.532.412,1.746,1.746,0,0,1,.257.292,2.087,2.087,0,0,1,.1,1.184q-.1.772-.24,1.648t-.223,1.716a2.209,2.209,0,0,0,.189,1.322.6.6,0,0,0,.275.086q.172.017.343-.257a16.576,16.576,0,0,0,.944-2.06q.5-1.27.91-2.66T27.3-44.8a11.235,11.235,0,0,0,.275-2.214q0-.446.326-.549a.919.919,0,0,1,.7.086,2.293,2.293,0,0,1,.7.566,1.321,1.321,0,0,1,.326.892A2.776,2.776,0,0,0,30.1-44.37a3.168,3.168,0,0,0,1.184,1.013,4.477,4.477,0,0,0,1.562.446,5.673,5.673,0,0,0,1.6-.051q.206-.034.24.017t-.017.154a.724.724,0,0,1-.137.189Zm2.574,3.261a2.122,2.122,0,0,0,1.442.412,3.132,3.132,0,0,0,1.407-.481,3.592,3.592,0,0,0,1.1-1.1,3.141,3.141,0,0,0,.515-1.442,19.593,19.593,0,0,0-2.317,1.219Q38.014-39.942,37.019-39.255Zm-1.648-.275a.887.887,0,0,0,.618-.189,4.713,4.713,0,0,1,.446-.36A9.916,9.916,0,0,1,38.2-41.538a18.729,18.729,0,0,1,2.042-1.15,4.258,4.258,0,0,0,.858-.446h-.275a.528.528,0,0,1-.206.086,1.418,1.418,0,0,0-.275.086A12.635,12.635,0,0,0,35.68-40.01a.333.333,0,0,0-.137.206A.607.607,0,0,1,35.371-39.53Zm.892-2.677a10.979,10.979,0,0,1,1.287-.824q.635-.343,1.253-.687a6.521,6.521,0,0,1,1.27-.532,5.146,5.146,0,0,1,1.39-.24,2.537,2.537,0,0,1,1.219.257,1.738,1.738,0,0,1,.824,1q0,.206.069.24a.478.478,0,0,0,.206.034,14.917,14.917,0,0,1,2.351.189,4.452,4.452,0,0,1,1.905.7q.24.172.206.24t-.189.1a1.675,1.675,0,0,1-.36.034h-.24q-.789-.069-1.493-.189A8.449,8.449,0,0,0,44.536-42h-.755a11.314,11.314,0,0,1-.618,2.231A9.039,9.039,0,0,1,42-37.625a6.147,6.147,0,0,1-1.716,1.6,3.736,3.736,0,0,1-2.231.549,2.7,2.7,0,0,1-1.356-.24,2.492,2.492,0,0,1-.858-.7,3.6,3.6,0,0,1-.515-.944,8.1,8.1,0,0,1-.292-.961.148.148,0,0,1-.069.12.148.148,0,0,0-.069.12l-.481,1.373q-.24.687-.532,1.459t-.652,1.648q-.36.875-.807,1.939a.391.391,0,0,1-.137.206,1.675,1.675,0,0,0-.172.1.434.434,0,0,1-.36.1.321.321,0,0,1-.257-.206,15.735,15.735,0,0,1,.154-3.347q.257-1.7.687-3.381t.961-3.3q.532-1.613.978-3.124,1.2-3.467,2.54-6.436t2.849-5.887l1.219-2.231a10.844,10.844,0,0,1,1.39-1.991,1.363,1.363,0,0,1,.6-.446.925.925,0,0,1,.738.034,1.117,1.117,0,0,1,.652,1.27q-.172,1.3-.463,2.626a16.162,16.162,0,0,1-.807,2.592,43.963,43.963,0,0,1-2.3,4.72,30.646,30.646,0,0,1-2.918,4.274,2.21,2.21,0,0,0-.412.721q-.206.515-.395,1.1t-.36,1.15A5.942,5.942,0,0,1,36.263-42.207Zm7.277-16.476A48.637,48.637,0,0,0,40.9-53.6l-2.334,5.218a6.322,6.322,0,0,0,.772-1.047q.463-.738.978-1.682t1.03-2.042q.515-1.1.961-2.128t.772-1.939Q43.4-58.134,43.541-58.684Zm5.218,19.5q-.687-.961-1.356-1.957a3.853,3.853,0,0,1-.669-2.2,4.538,4.538,0,0,1,.772-2.523,7.1,7.1,0,0,1,1.768-1.905,4.59,4.59,0,0,1,.841-.446,1.149,1.149,0,0,1,.91.034,1.922,1.922,0,0,0,.429.154,2.7,2.7,0,0,1,.395.12,2.1,2.1,0,0,1,.378.206.431.431,0,0,1,.206.378q0,.961.051,1.562a7.065,7.065,0,0,0,.154,1.03q.1.429.206.755t.206.7a.98.98,0,0,1-.034.584q-.1.24-.515.069a1.915,1.915,0,0,1-1.116-1.1,9.663,9.663,0,0,1-.532-1.51,4.468,4.468,0,0,0-.172-.481,4.468,4.468,0,0,1-.172-.481.831.831,0,0,0-.652.189,2.473,2.473,0,0,0-.669.7,2.528,2.528,0,0,0-.378,1.03,1.868,1.868,0,0,0,.223,1.167,4.892,4.892,0,0,0,.395.5q.257.292.515.6t.515.6q.257.292.429.463a.948.948,0,0,0,.275.223A.852.852,0,0,0,51.5-40.8q.343-.172,1.047-.446t1.476-.549q.772-.275,1.476-.463a4.534,4.534,0,0,1,1.081-.189.368.368,0,0,1,.343.172q.1.1-.034.275a2.091,2.091,0,0,1-.36.343,4.076,4.076,0,0,1-.463.309q-.24.137-.309.172-.584.343-1.476.772a15.451,15.451,0,0,0-1.545.841.735.735,0,0,1-.257.137,1.408,1.408,0,0,0-.292.137,10.441,10.441,0,0,1,.584,1.6,3.869,3.869,0,0,1,.12,1.287,5.55,5.55,0,0,1-.257,1.253q-.206.635-.549,1.459-.481.789-.978,1.51a8.18,8.18,0,0,1-1.116,1.3,5.205,5.205,0,0,1-1.339.927,3.625,3.625,0,0,1-1.579.343,3.549,3.549,0,0,1-.927-.12,1.444,1.444,0,0,1-.755-.5A3.212,3.212,0,0,1,44.5-32.1a5.424,5.424,0,0,1,.172-2.008,5.69,5.69,0,0,1,.515-1.133,10.665,10.665,0,0,1,1.665-2.214Q47.763-38.363,48.758-39.186Zm1.167,1.545q-.378.378-1.03,1.081a13.462,13.462,0,0,0-1.219,1.528,10.322,10.322,0,0,0-.927,1.63,2.021,2.021,0,0,0-.189,1.39,5.013,5.013,0,0,0,1.407-1.013,9.126,9.126,0,0,0,1.27-1.545,5.862,5.862,0,0,0,.772-1.665A1.881,1.881,0,0,0,49.925-37.642Z" transform="translate(13.2 61.662)" fill="#acb2aa"/>
</svg>
