<svg xmlns="http://www.w3.org/2000/svg" width="52.399" height="32.856" viewBox="0 0 52.399 32.856">
  <path id="yawbs-logo" d="M-7.2-42.6A1.748,1.748,0,0,1-8.445-42.8a1.409,1.409,0,0,1-.7-1,7.212,7.212,0,0,1-.1-1.282,13.825,13.825,0,0,1,.077-1.448q.077-.731.218-1.423t.295-1.23a.424.424,0,0,1,.4-.231A1.546,1.546,0,0,1-7.7-49.3a1.873,1.873,0,0,1,.513.295.762.762,0,0,1,.269.359,2.334,2.334,0,0,1-.141,1.064q-.218.731-.474,1.525t-.41,1.474q-.154.679.051.859.179.179.474-.09a3.95,3.95,0,0,0,.628-.795q.333-.525.692-1.23t.7-1.4q.346-.692.628-1.282t.461-.9q.051-.1.243-.09a1.044,1.044,0,0,1,.4.115,1.647,1.647,0,0,1,.384.269.756.756,0,0,1,.231.372A5.964,5.964,0,0,1-2.9-46.814a13.706,13.706,0,0,1-.282,1.961q.948-.743,1.858-1.333A13.8,13.8,0,0,1,.641-47.237a.916.916,0,0,1,.4-.115,2.015,2.015,0,0,1,.5-.013q.205.026.218.167t-.474.449A28.035,28.035,0,0,0-1.1-45.059q-1.2.948-2.256,1.794a.612.612,0,0,0-.231.41,22.811,22.811,0,0,1-.718,3.178,35.268,35.268,0,0,1-1.243,3.512,30.02,30.02,0,0,1-1.64,3.371A17.07,17.07,0,0,1-9.1-30.038,3.663,3.663,0,0,1-10.457-29a2.079,2.079,0,0,1-1.32.141,1.689,1.689,0,0,1-1-.756,3.119,3.119,0,0,1-.423-1.653,12.886,12.886,0,0,1,1.077-3.089A21.3,21.3,0,0,1-10.342-37.3q1.038-1.448,2.294-2.9t2.64-2.935a1.218,1.218,0,0,0,.333-.6,8.339,8.339,0,0,0,.256-1.012,9.559,9.559,0,0,0,.141-1.012,1.54,1.54,0,0,0-.013-.577q-.256.461-.564,1.089t-.641,1.2a8.447,8.447,0,0,1-.666,1A1,1,0,0,1-7.2-42.6ZM-12-30.218q.282.1.82-.551a15.629,15.629,0,0,0,1.2-1.743Q-9.3-33.6-8.612-34.947t1.269-2.614q.577-1.269.961-2.294a5.914,5.914,0,0,0,.41-1.461q-.666.718-1.461,1.73T-9-37.459q-.769,1.115-1.448,2.268a22.172,22.172,0,0,0-1.128,2.153,7.976,7.976,0,0,0-.59,1.756A1.165,1.165,0,0,0-12-30.218ZM3.281-43.469l-.513.4a3.733,3.733,0,0,1-.615.384,3.3,3.3,0,0,1-.7.256,1.848,1.848,0,0,1-.782.013A1.465,1.465,0,0,1,.1-42.636a3.006,3.006,0,0,1-.487-.4A1.092,1.092,0,0,1-.666-43.7a3.366,3.366,0,0,1-.026-.692A13.156,13.156,0,0,1-.333-45.8a11.705,11.705,0,0,1,.564-1.461,8.176,8.176,0,0,1,1.435-2.1,3.932,3.932,0,0,1,2.1-1.179,2.217,2.217,0,0,1,.859-.038,1.8,1.8,0,0,1,.782.295,1.578,1.578,0,0,1,.513.577A1.042,1.042,0,0,1,6-48.955q-.051.154-.115.308a.928.928,0,0,1-.154.256.31.31,0,0,1-.167.115q-.077.013-.154-.141-.026-.077-.064-.218a1.308,1.308,0,0,0-.115-.282.872.872,0,0,0-.218-.256.568.568,0,0,0-.372-.115,1.707,1.707,0,0,0-1.1.6,9.894,9.894,0,0,0-1.179,1.41,13.514,13.514,0,0,0-.974,1.615,6.537,6.537,0,0,0-.513,1.218q-.154.666.026.7t.564-.282a7.808,7.808,0,0,0,.871-.884q.487-.564.923-1.115t.756-.974q.32-.423.346-.449a.963.963,0,0,1,.666-.231.951.951,0,0,1,.577.244,1.108,1.108,0,0,1,.333.538.924.924,0,0,1-.064.654q-.179.41-.474.974a3.554,3.554,0,0,0-.372,1q-.077.666.154.871t.846-.026a3.429,3.429,0,0,0,1.025-.73q.538-.525,1.064-1.115T9.1-46.391a7.02,7.02,0,0,1,.769-.795,2.078,2.078,0,0,1,.192-.167q.115-.09.192-.038.128.051.141.141a1.362,1.362,0,0,1,.013.192,12.837,12.837,0,0,1-.795,1.615,10.13,10.13,0,0,1-1.038,1.474,7.766,7.766,0,0,1-1.282,1.2,6.156,6.156,0,0,1-1.525.833,1.908,1.908,0,0,1-.923.115,1.768,1.768,0,0,1-.743-.295,1.783,1.783,0,0,1-.538-.59A2.448,2.448,0,0,1,3.281-43.469Zm19.1-3.9a2.889,2.889,0,0,1-.974.423,2.962,2.962,0,0,1-1.025.051,3.77,3.77,0,0,1-1-.269,3.241,3.241,0,0,1-.871-.538q-.231.743-.525,1.615a12.92,12.92,0,0,1-.679,1.64,6.461,6.461,0,0,1-.9,1.358,2.368,2.368,0,0,1-1.179.769.571.571,0,0,1-.384.026,1.678,1.678,0,0,1-.474-.192,2.84,2.84,0,0,1-.449-.32,2.129,2.129,0,0,1-.333-.359,1.539,1.539,0,0,1-.269-.654,4.519,4.519,0,0,1-.064-.769,5.623,5.623,0,0,1,.051-.769,4.856,4.856,0,0,0,.051-.654q-.154.231-.487.833t-.731,1.23a9.215,9.215,0,0,1-.807,1.1q-.41.474-.666.449a1.676,1.676,0,0,1-.782-.295,1.409,1.409,0,0,1-.5-.6,2.773,2.773,0,0,1-.077-1.2,14.807,14.807,0,0,1,.269-1.717q.192-.9.4-1.692t.308-1.179q0-.231.269-.205a1.346,1.346,0,0,1,.577.218,1.668,1.668,0,0,1,.525.538,1.069,1.069,0,0,1,.141.782q-.128.615-.244,1.128t-.256.987q-.141.474-.308.987t-.372,1.128q.077.154.41-.295a12.482,12.482,0,0,0,.718-1.1q.384-.654.743-1.346t.538-1a.938.938,0,0,0,.205-.487,1.47,1.47,0,0,1,.154-.513.394.394,0,0,1,.384-.205,1.121,1.121,0,0,1,.461.167,2.126,2.126,0,0,1,.4.308,1.3,1.3,0,0,1,.192.218,1.559,1.559,0,0,1,.077.884q-.077.577-.179,1.23t-.167,1.282a1.649,1.649,0,0,0,.141.987.447.447,0,0,0,.205.064q.128.013.256-.192a12.378,12.378,0,0,0,.7-1.538q.372-.948.679-1.986t.513-2.025a8.39,8.39,0,0,0,.205-1.653q0-.333.244-.41a.686.686,0,0,1,.525.064,1.712,1.712,0,0,1,.525.423.987.987,0,0,1,.243.666,2.073,2.073,0,0,0,.346,1.23,2.366,2.366,0,0,0,.884.756,3.343,3.343,0,0,0,1.166.333,4.236,4.236,0,0,0,1.192-.038q.154-.026.179.013t-.013.115a.541.541,0,0,1-.1.141ZM24.3-44.93a1.584,1.584,0,0,0,1.077.308,2.339,2.339,0,0,0,1.051-.359,2.682,2.682,0,0,0,.82-.82,2.345,2.345,0,0,0,.384-1.077,14.631,14.631,0,0,0-1.73.91Q25.043-45.443,24.3-44.93Zm-1.23-.205a.663.663,0,0,0,.461-.141,3.519,3.519,0,0,1,.333-.269,7.4,7.4,0,0,1,1.32-1.089,13.986,13.986,0,0,1,1.525-.859,3.179,3.179,0,0,0,.641-.333h-.205a.4.4,0,0,1-.154.064,1.059,1.059,0,0,0-.205.064,9.434,9.434,0,0,0-3.486,2.2.249.249,0,0,0-.1.154A.454.454,0,0,1,23.069-45.135Zm.666-2a8.2,8.2,0,0,1,.961-.615q.474-.256.936-.513a4.87,4.87,0,0,1,.948-.4,3.843,3.843,0,0,1,1.038-.179,1.9,1.9,0,0,1,.91.192,1.3,1.3,0,0,1,.615.743q0,.154.051.179a.357.357,0,0,0,.154.026,11.139,11.139,0,0,1,1.756.141,3.325,3.325,0,0,1,1.423.525q.179.128.154.179t-.141.077a1.251,1.251,0,0,1-.269.026h-.179q-.59-.051-1.115-.141a6.309,6.309,0,0,0-1.064-.09h-.564a8.449,8.449,0,0,1-.461,1.666,6.75,6.75,0,0,1-.871,1.6,4.59,4.59,0,0,1-1.282,1.192,2.79,2.79,0,0,1-1.666.41,2.013,2.013,0,0,1-1.012-.179,1.861,1.861,0,0,1-.641-.525,2.686,2.686,0,0,1-.384-.7,6.051,6.051,0,0,1-.218-.718.111.111,0,0,1-.051.09.111.111,0,0,0-.051.09l-.359,1.025q-.179.513-.4,1.089t-.487,1.23q-.269.654-.6,1.448a.292.292,0,0,1-.1.154,1.251,1.251,0,0,0-.128.077.324.324,0,0,1-.269.077.24.24,0,0,1-.192-.154,11.75,11.75,0,0,1,.115-2.5q.192-1.269.513-2.525t.718-2.461q.4-1.2.731-2.332.9-2.589,1.9-4.806t2.127-4.4l.91-1.666a8.1,8.1,0,0,1,1.038-1.487,1.018,1.018,0,0,1,.449-.333.691.691,0,0,1,.551.026.834.834,0,0,1,.487.948q-.128.974-.346,1.961a12.068,12.068,0,0,1-.6,1.935,32.828,32.828,0,0,1-1.717,3.524,22.884,22.884,0,0,1-2.179,3.191,1.65,1.65,0,0,0-.308.538q-.154.384-.295.82t-.269.859A4.437,4.437,0,0,1,23.735-47.135Zm5.434-12.3A36.318,36.318,0,0,0,27.2-55.644l-1.743,3.9a4.721,4.721,0,0,0,.577-.782q.346-.551.731-1.256t.769-1.525q.384-.82.718-1.589t.577-1.448Q29.067-59.028,29.169-59.438Zm3.9,14.559q-.513-.718-1.012-1.461a2.877,2.877,0,0,1-.5-1.64,3.389,3.389,0,0,1,.577-1.884,5.305,5.305,0,0,1,1.32-1.423,3.427,3.427,0,0,1,.628-.333.858.858,0,0,1,.679.026,1.436,1.436,0,0,0,.32.115,2.02,2.02,0,0,1,.295.09,1.572,1.572,0,0,1,.282.154.322.322,0,0,1,.154.282q0,.718.038,1.166a5.276,5.276,0,0,0,.115.769q.077.32.154.564t.154.525a.731.731,0,0,1-.026.436q-.077.179-.384.051a1.43,1.43,0,0,1-.833-.82,7.216,7.216,0,0,1-.4-1.128,3.335,3.335,0,0,0-.128-.359,3.336,3.336,0,0,1-.128-.359.62.62,0,0,0-.487.141,1.846,1.846,0,0,0-.5.525,1.888,1.888,0,0,0-.282.769,1.4,1.4,0,0,0,.167.871,3.653,3.653,0,0,0,.295.372q.192.218.384.449t.384.449q.192.218.32.346a.708.708,0,0,0,.205.167.636.636,0,0,0,.256-.064q.256-.128.782-.333t1.1-.41q.577-.205,1.1-.346a3.385,3.385,0,0,1,.807-.141.275.275,0,0,1,.256.128q.077.077-.026.205a1.561,1.561,0,0,1-.269.256,3.044,3.044,0,0,1-.346.231q-.179.1-.231.128-.436.256-1.1.577a11.538,11.538,0,0,0-1.153.628.549.549,0,0,1-.192.1,1.051,1.051,0,0,0-.218.1,7.8,7.8,0,0,1,.436,1.192,2.889,2.889,0,0,1,.09.961,4.144,4.144,0,0,1-.192.936q-.154.474-.41,1.089-.359.59-.731,1.128a6.108,6.108,0,0,1-.833.974,3.887,3.887,0,0,1-1,.692,2.707,2.707,0,0,1-1.179.256,2.65,2.65,0,0,1-.692-.09,1.078,1.078,0,0,1-.564-.372,2.4,2.4,0,0,1-.666-1.4,4.05,4.05,0,0,1,.128-1.5,4.249,4.249,0,0,1,.384-.846,7.964,7.964,0,0,1,1.243-1.653Q32.322-44.264,33.065-44.879Zm.871,1.153q-.282.282-.769.807a10.053,10.053,0,0,0-.91,1.141,7.708,7.708,0,0,0-.692,1.218,1.509,1.509,0,0,0-.141,1.038,3.744,3.744,0,0,0,1.051-.756,6.815,6.815,0,0,0,.948-1.153A4.377,4.377,0,0,0,34-42.675,1.4,1.4,0,0,0,33.937-43.726Z" transform="translate(13.2 61.662)" fill="#acb2aa"/>
</svg>
